<mxfile host="app.diagrams.net" agent="Mozilla/5.0 (Macintosh; Intel Mac OS X 10_15_7) AppleWebKit/605.1.15 (KHTML, like Gecko) Version/18.6 Safari/605.1.15" version="28.2.7">
  <diagram name="Página-1" id="82_KhoeY3TaLfvTmLFWX">
    <mxGraphModel dx="1018" dy="697" grid="1" gridSize="10" guides="1" tooltips="1" connect="1" arrows="1" fold="1" page="1" pageScale="1" pageWidth="827" pageHeight="1169" math="0" shadow="0">
      <root>
        <mxCell id="0" />
        <mxCell id="1" parent="0" />
        <mxCell id="YZa_kgdZhRPtLJ3miyQw-1" value="Cliente" style="shape=umlActor;verticalLabelPosition=bottom;verticalAlign=top;html=1;outlineConnect=0;" parent="1" vertex="1">
          <mxGeometry x="30" y="250" width="40" height="70" as="geometry" />
        </mxCell>
        <mxCell id="YZa_kgdZhRPtLJ3miyQw-15" style="edgeStyle=orthogonalEdgeStyle;rounded=0;orthogonalLoop=1;jettySize=auto;html=1;exitX=0.5;exitY=0;exitDx=0;exitDy=0;" parent="1" source="YZa_kgdZhRPtLJ3miyQw-2" edge="1">
          <mxGeometry relative="1" as="geometry">
            <mxPoint x="330" y="220" as="targetPoint" />
          </mxGeometry>
        </mxCell>
        <mxCell id="YZa_kgdZhRPtLJ3miyQw-2" value="Controlador" style="rounded=0;whiteSpace=wrap;html=1;fontFamily=Verdana;" parent="1" vertex="1">
          <mxGeometry x="230" y="270" width="90" height="60" as="geometry" />
        </mxCell>
        <mxCell id="YZa_kgdZhRPtLJ3miyQw-3" value="" style="endArrow=classic;html=1;rounded=0;" parent="1" edge="1">
          <mxGeometry width="50" height="50" relative="1" as="geometry">
            <mxPoint x="80" y="300" as="sourcePoint" />
            <mxPoint x="210.71067811865476" y="299.5" as="targetPoint" />
          </mxGeometry>
        </mxCell>
        <mxCell id="YZa_kgdZhRPtLJ3miyQw-4" value="" style="whiteSpace=wrap;html=1;shape=mxgraph.basic.cloud_callout;fontSize=10;verticalAlign=middle;" parent="1" vertex="1">
          <mxGeometry x="72.5" y="180" width="130" height="70" as="geometry" />
        </mxCell>
        <mxCell id="YZa_kgdZhRPtLJ3miyQw-5" value="Quiero saber cuanto he gastado" style="text;html=1;whiteSpace=wrap;strokeColor=none;fillColor=none;align=center;verticalAlign=middle;rounded=0;" parent="1" vertex="1">
          <mxGeometry x="82.5" y="190" width="110" height="30" as="geometry" />
        </mxCell>
        <mxCell id="YZa_kgdZhRPtLJ3miyQw-7" value="Recibe peticiónes y envia al servicio" style="text;html=1;whiteSpace=wrap;strokeColor=none;fillColor=none;align=center;verticalAlign=middle;rounded=0;" parent="1" vertex="1">
          <mxGeometry x="290" y="180" width="90" height="30" as="geometry" />
        </mxCell>
        <mxCell id="YZa_kgdZhRPtLJ3miyQw-10" style="edgeStyle=orthogonalEdgeStyle;rounded=0;orthogonalLoop=1;jettySize=auto;html=1;exitX=0.5;exitY=1;exitDx=0;exitDy=0;" parent="1" source="YZa_kgdZhRPtLJ3miyQw-7" target="YZa_kgdZhRPtLJ3miyQw-7" edge="1">
          <mxGeometry relative="1" as="geometry" />
        </mxCell>
        <mxCell id="YZa_kgdZhRPtLJ3miyQw-21" style="edgeStyle=orthogonalEdgeStyle;rounded=0;orthogonalLoop=1;jettySize=auto;html=1;exitX=0.5;exitY=0;exitDx=0;exitDy=0;" parent="1" source="YZa_kgdZhRPtLJ3miyQw-16" edge="1">
          <mxGeometry relative="1" as="geometry">
            <mxPoint x="520" y="220" as="targetPoint" />
          </mxGeometry>
        </mxCell>
        <mxCell id="YZa_kgdZhRPtLJ3miyQw-16" value="Servicios" style="rounded=0;whiteSpace=wrap;html=1;fontFamily=Verdana;" parent="1" vertex="1">
          <mxGeometry x="414" y="270" width="86" height="60" as="geometry" />
        </mxCell>
        <mxCell id="YZa_kgdZhRPtLJ3miyQw-17" value="" style="endArrow=classic;html=1;rounded=0;" parent="1" source="YZa_kgdZhRPtLJ3miyQw-2" edge="1">
          <mxGeometry width="50" height="50" relative="1" as="geometry">
            <mxPoint x="320" y="350" as="sourcePoint" />
            <mxPoint x="390.71067811865476" y="300" as="targetPoint" />
          </mxGeometry>
        </mxCell>
        <mxCell id="YZa_kgdZhRPtLJ3miyQw-18" value="Llama al repositorio para pedir la info" style="text;html=1;whiteSpace=wrap;strokeColor=none;fillColor=none;align=center;verticalAlign=middle;rounded=0;" parent="1" vertex="1">
          <mxGeometry x="470" y="180" width="100" height="30" as="geometry" />
        </mxCell>
        <mxCell id="YZa_kgdZhRPtLJ3miyQw-29" style="edgeStyle=orthogonalEdgeStyle;rounded=0;orthogonalLoop=1;jettySize=auto;html=1;exitX=1;exitY=0;exitDx=0;exitDy=0;" parent="1" source="YZa_kgdZhRPtLJ3miyQw-22" edge="1">
          <mxGeometry relative="1" as="geometry">
            <mxPoint x="760" y="200" as="targetPoint" />
            <Array as="points">
              <mxPoint x="740" y="270" />
              <mxPoint x="740" y="236" />
              <mxPoint x="760" y="236" />
            </Array>
          </mxGeometry>
        </mxCell>
        <mxCell id="YZa_kgdZhRPtLJ3miyQw-33" style="edgeStyle=orthogonalEdgeStyle;rounded=0;orthogonalLoop=1;jettySize=auto;html=1;exitX=0.5;exitY=0;exitDx=0;exitDy=0;" parent="1" source="YZa_kgdZhRPtLJ3miyQw-22" edge="1">
          <mxGeometry relative="1" as="geometry">
            <mxPoint x="635" y="200" as="targetPoint" />
          </mxGeometry>
        </mxCell>
        <mxCell id="YZa_kgdZhRPtLJ3miyQw-36" style="edgeStyle=orthogonalEdgeStyle;rounded=0;orthogonalLoop=1;jettySize=auto;html=1;exitX=0.5;exitY=1;exitDx=0;exitDy=0;" parent="1" source="YZa_kgdZhRPtLJ3miyQw-22" edge="1">
          <mxGeometry relative="1" as="geometry">
            <mxPoint x="635" y="380" as="targetPoint" />
          </mxGeometry>
        </mxCell>
        <mxCell id="YZa_kgdZhRPtLJ3miyQw-22" value="Repositorio&amp;nbsp;" style="rounded=0;whiteSpace=wrap;html=1;fontFamily=Verdana;" parent="1" vertex="1">
          <mxGeometry x="590" y="270" width="90" height="60" as="geometry" />
        </mxCell>
        <mxCell id="YZa_kgdZhRPtLJ3miyQw-23" value="" style="endArrow=classic;html=1;rounded=0;" parent="1" edge="1">
          <mxGeometry width="50" height="50" relative="1" as="geometry">
            <mxPoint x="500" y="304.5" as="sourcePoint" />
            <mxPoint x="570" y="304.5" as="targetPoint" />
            <Array as="points">
              <mxPoint x="530" y="304.5" />
            </Array>
          </mxGeometry>
        </mxCell>
        <mxCell id="YZa_kgdZhRPtLJ3miyQw-25" value="DB" style="shape=datastore;whiteSpace=wrap;html=1;" parent="1" vertex="1">
          <mxGeometry x="740" y="140" width="50" height="50" as="geometry" />
        </mxCell>
        <mxCell id="YZa_kgdZhRPtLJ3miyQw-30" value="Va a la base de datos para recoger los datos" style="text;html=1;whiteSpace=wrap;strokeColor=none;fillColor=none;align=center;verticalAlign=middle;rounded=0;" parent="1" vertex="1">
          <mxGeometry x="600" y="150" width="80" height="30" as="geometry" />
        </mxCell>
        <mxCell id="YZa_kgdZhRPtLJ3miyQw-38" style="edgeStyle=orthogonalEdgeStyle;rounded=0;orthogonalLoop=1;jettySize=auto;html=1;exitX=0;exitY=0.5;exitDx=0;exitDy=0;" parent="1" source="YZa_kgdZhRPtLJ3miyQw-34" edge="1">
          <mxGeometry relative="1" as="geometry">
            <mxPoint x="530" y="405" as="targetPoint" />
          </mxGeometry>
        </mxCell>
        <mxCell id="YZa_kgdZhRPtLJ3miyQw-34" value="Envia los datos a Servicios" style="text;html=1;whiteSpace=wrap;strokeColor=none;fillColor=none;align=center;verticalAlign=middle;rounded=0;" parent="1" vertex="1">
          <mxGeometry x="590" y="390" width="100" height="30" as="geometry" />
        </mxCell>
        <mxCell id="YZa_kgdZhRPtLJ3miyQw-42" style="edgeStyle=orthogonalEdgeStyle;rounded=0;orthogonalLoop=1;jettySize=auto;html=1;exitX=0;exitY=0.5;exitDx=0;exitDy=0;" parent="1" source="YZa_kgdZhRPtLJ3miyQw-37" edge="1">
          <mxGeometry relative="1" as="geometry">
            <mxPoint x="330" y="410" as="targetPoint" />
          </mxGeometry>
        </mxCell>
        <mxCell id="YZa_kgdZhRPtLJ3miyQw-37" value="Servicio recibe los datos y los valida para enviarlos al controlador" style="text;html=1;whiteSpace=wrap;strokeColor=none;fillColor=none;align=center;verticalAlign=middle;rounded=0;" parent="1" vertex="1">
          <mxGeometry x="394" y="390" width="126" height="40" as="geometry" />
        </mxCell>
        <mxCell id="YZa_kgdZhRPtLJ3miyQw-47" style="edgeStyle=orthogonalEdgeStyle;rounded=0;orthogonalLoop=1;jettySize=auto;html=1;exitX=0.5;exitY=1;exitDx=0;exitDy=0;entryX=1;entryY=0.5;entryDx=0;entryDy=0;" parent="1" source="YZa_kgdZhRPtLJ3miyQw-39" target="YZa_kgdZhRPtLJ3miyQw-43" edge="1">
          <mxGeometry relative="1" as="geometry" />
        </mxCell>
        <mxCell id="YZa_kgdZhRPtLJ3miyQw-39" value="Controlador lo muestra en pantalla" style="text;html=1;whiteSpace=wrap;strokeColor=none;fillColor=none;align=center;verticalAlign=middle;rounded=0;" parent="1" vertex="1">
          <mxGeometry x="235" y="390" width="85" height="30" as="geometry" />
        </mxCell>
        <mxCell id="YZa_kgdZhRPtLJ3miyQw-48" style="edgeStyle=orthogonalEdgeStyle;rounded=0;orthogonalLoop=1;jettySize=auto;html=1;exitX=0.5;exitY=0;exitDx=0;exitDy=0;" parent="1" source="YZa_kgdZhRPtLJ3miyQw-43" edge="1">
          <mxGeometry relative="1" as="geometry">
            <mxPoint x="40" y="370" as="targetPoint" />
          </mxGeometry>
        </mxCell>
        <mxCell id="YZa_kgdZhRPtLJ3miyQw-43" value="&lt;div style=&quot;&quot;&gt;GASTOS MENSUALES&lt;/div&gt;&lt;div style=&quot;&quot;&gt;&lt;br&gt;&lt;/div&gt;&lt;div&gt;&lt;br&gt;&lt;/div&gt;" style="rounded=0;whiteSpace=wrap;html=1;verticalAlign=top;" parent="1" vertex="1">
          <mxGeometry x="30" y="440" width="190" height="115" as="geometry" />
        </mxCell>
        <mxCell id="YZa_kgdZhRPtLJ3miyQw-44" value="" style="rounded=0;whiteSpace=wrap;html=1;" parent="1" vertex="1">
          <mxGeometry x="72.5" y="480" width="105" height="55" as="geometry" />
        </mxCell>
        <mxCell id="YZa_kgdZhRPtLJ3miyQw-45" value="Pantalla" style="text;html=1;whiteSpace=wrap;strokeColor=none;fillColor=none;align=center;verticalAlign=middle;rounded=0;" parent="1" vertex="1">
          <mxGeometry x="85" y="570" width="60" height="30" as="geometry" />
        </mxCell>
      </root>
    </mxGraphModel>
  </diagram>
</mxfile>
